<?xml version="1.0" standalone="no"?>
<!DOCTYPE svg PUBLIC "-//W3C//DTD SVG 20010904//EN"
 "http://www.w3.org/TR/2001/REC-SVG-20010904/DTD/svg10.dtd">
<svg version="1.0" xmlns="http://www.w3.org/2000/svg"
 width="512.000000pt" height="512.000000pt" viewBox="0 0 512.000000 512.000000"
 preserveAspectRatio="xMidYMid meet">
<metadata>
Created by potrace 1.16, written by Peter Selinger 2001-2019
</metadata>
<g transform="translate(0.000000,512.000000) scale(0.100000,-0.100000)"
fill="#000000" stroke="none">
<path d="M2305 5113 c-671 -72 -1279 -393 -1707 -903 -301 -358 -488 -764
-571 -1240 -19 -109 -21 -162 -21 -410 0 -248 2 -301 21 -410 94 -540 320
-987 693 -1374 383 -398 866 -650 1430 -749 109 -19 162 -21 410 -21 313 0
407 10 653 73 882 228 1600 946 1828 1828 63 246 73 340 73 653 0 313 -10 407
-73 653 -228 881 -946 1600 -1828 1828 -227 58 -334 71 -613 74 -140 2 -273 1
-295 -2z m-163 -2018 c123 -32 233 -105 297 -199 l29 -41 -126 -89 c-116 -82
-127 -88 -136 -70 -55 98 -198 149 -309 110 -103 -37 -158 -122 -165 -256 -5
-101 7 -151 51 -217 93 -139 326 -138 409 3 l19 32 134 -80 134 -80 -30 -49
c-75 -122 -239 -208 -429 -225 -339 -32 -653 285 -627 634 15 210 136 391 321
482 35 17 85 37 112 45 67 18 246 19 316 0z m1062 -117 c-43 -171 -43 -168 4
-168 l38 0 28 118 c16 64 33 132 38 150 l9 32 130 0 c119 0 130 -1 125 -17
-12 -43 -66 -263 -66 -272 0 -7 36 -11 100 -11 l100 0 0 -115 0 -114 -132 -3
c-147 -3 -133 5 -151 -85 l-6 -33 104 0 105 0 0 -120 0 -120 -134 0 -134 0
-34 -140 -33 -140 -127 0 c-84 0 -128 4 -128 11 0 5 14 64 30 129 17 65 30
124 30 129 0 6 -18 11 -40 11 -33 0 -41 -4 -45 -22 -3 -13 -18 -75 -33 -138
l-28 -115 -131 -3 -131 -3 34 133 c18 73 34 136 34 141 0 4 -40 7 -90 7 l-90
0 0 120 0 120 120 0 119 0 11 43 c6 23 13 50 16 60 5 15 -4 17 -90 17 l-96 0
0 115 0 115 123 0 123 0 28 118 c16 64 33 132 38 150 l9 32 128 0 129 0 -34
-132z"/>
</g>
</svg>
